<svg xmlns="http://www.w3.org/2000/svg" viewBox="0 0 110.48 110.48"><g id="Layer_2" data-name="Layer 2"><g id="Layer_1-2" data-name="Layer 1"><path d="M0,83.27V27.18c.18-1,.32-2.05.55-3.05C3.39,12.07,10.74,4.29,22.67.91c1.47-.42,3-.61,4.51-.91H83.27c1.51.3,3,.53,4.52.9,12.95,3.28,22.47,14.81,22.59,27.89.18,17.62.07,35.23,0,52.84A25.06,25.06,0,0,1,108,92.28c-5.5,11.68-14.73,17.81-27.69,18.15-3.91.1-7.83,0-11.75,0q-19.2,0-38.39,0A28.76,28.76,0,0,1,18.05,108,29.46,29.46,0,0,1,.85,87.47C.5,86.09.28,84.67,0,83.27Zm54.11,2.09a30.16,30.16,0,1,0-29-31.25A30.18,30.18,0,0,0,54.11,85.36ZM95,23.66A8.86,8.86,0,1,0,77.28,23,8.86,8.86,0,0,0,95,23.66Z"/><path d="M31.5,55.19A23.73,23.73,0,1,1,55.14,79,23.75,23.75,0,0,1,31.5,55.19Z"/></g></g></svg>