<svg xmlns="http://www.w3.org/2000/svg" viewBox="0 0 145 145"><defs><style>.cls-1{fill:red;}.cls-2{fill:#fff;}</style></defs><g id="Layer_2" data-name="Layer 2"><g id="Layer_1-2" data-name="Layer 1"><circle class="cls-1" cx="72.5" cy="72.5" r="72.5"/><g id="Layer_2-2" data-name="Layer 2"><g id="Layer_1-2-2" data-name="Layer 1-2"><path class="cls-2" d="M35.11,91.48v-38c.12-.68.21-1.39.37-2.07,1.92-8.16,6.9-13.43,15-15.72,1-.28,2-.41,3.06-.61h38c1,.2,2,.36,3.06.61,8.77,2.22,15.21,10,15.3,18.88.12,11.92,0,23.85,0,35.77a17,17,0,0,1-1.61,7.21c-3.73,7.9-10,12-18.75,12.28-2.65.07-5.3,0-8,0h-26a19.58,19.58,0,0,1-8.2-1.64,20,20,0,0,1-11.65-13.9C35.45,93.38,35.3,92.42,35.11,91.48Zm36.63,1.41A20.41,20.41,0,1,0,52.11,71.72v0A20.42,20.42,0,0,0,71.74,92.89ZM99.42,51.12a6,6,0,0,0-12-.44h0a6,6,0,1,0,12,.44Z"/><path class="cls-2" d="M56.43,72.47a16.07,16.07,0,1,1,16,16.12h0A16.09,16.09,0,0,1,56.43,72.47Z"/></g></g></g></g></svg>