<svg xmlns="http://www.w3.org/2000/svg" viewBox="0 0 106.22 106.19"><g id="Layer_2" data-name="Layer 2"><g id="Layer_1-2" data-name="Layer 1"><path d="M0,93.75V12.44a1.63,1.63,0,0,0,.19-.34A14.39,14.39,0,0,1,14.81,0h77a14.4,14.4,0,0,1,14.44,14.41q0,38.69,0,77.36a14.34,14.34,0,0,1-9.77,13.63c-.94.32-1.92.53-2.88.79H12.65a4.3,4.3,0,0,0-.57-.2A14.32,14.32,0,0,1,.51,95.6C.31,95,.17,94.37,0,93.75ZM56.77,47.1c-.13-.18-.2-.23-.2-.28,0-.9,0-1.8,0-2.69-.05-1.57-.76-2.27-2.32-2.27H45c-1.71,0-2.45.74-2.45,2.46q0,19.7,0,39.39c0,1.81.77,2.57,2.61,2.57,2.83,0,5.66,0,8.5,0,2.22,0,2.85-.61,2.85-2.81,0-6.7,0-13.4,0-20.11a12.68,12.68,0,0,1,2-7.07,6.76,6.76,0,0,1,6.68-3.07,5.94,5.94,0,0,1,5.71,4.62,27.55,27.55,0,0,1,.82,6.53c.1,6.46,0,12.92,0,19.38,0,1.79.72,2.5,2.53,2.51H83.5c1.82,0,2.59-.77,2.59-2.59,0-7.19.07-14.38-.08-21.56A55,55,0,0,0,85,53a14,14,0,0,0-5.5-9.08,15.75,15.75,0,0,0-9.39-2.71C64.8,41.11,60,42.31,56.77,47.1Zm-20.6,17V44.82c0-2.35-.64-3-3-3H24.85c-1.85,0-2.66.81-2.66,2.65V83.57c0,1.85.87,2.71,2.74,2.71,2.77,0,5.53,0,8.3,0,2.2,0,2.94-.72,2.94-2.9ZM38.2,29a9,9,0,0,0-9-9A9,9,0,0,0,29.1,38,9,9,0,0,0,38.2,29Z"/></g></g></svg>