<svg xmlns="http://www.w3.org/2000/svg" viewBox="0 0 145 145"><defs><style>.cls-1{fill:red;}.cls-2{fill:#fff;}</style></defs><g id="Layer_2" data-name="Layer 2"><g id="Layer_1-2" data-name="Layer 1"><circle class="cls-1" cx="72.5" cy="72.5" r="72.5"/><g id="Layer_2-2" data-name="Layer 2"><g id="Layer_1-2-2" data-name="Layer 1-2"><path class="cls-2" d="M34.64,101.48V43.53c0-.08.1-.16.14-.24a10.26,10.26,0,0,1,10.41-8.63h54.88A10.27,10.27,0,0,1,110.36,44.9v55.16a10.22,10.22,0,0,1-7,9.72c-.67.23-1.37.38-2.06.56H43.66a3.31,3.31,0,0,0-.41-.14A10.21,10.21,0,0,1,35,102.79C34.86,102.37,34.76,101.92,34.64,101.48ZM75.1,68.23C75,68.1,75,68.07,75,68V66.11A1.44,1.44,0,0,0,73.3,64.5H66.71C65.49,64.5,65,65,65,66.25V94.32c0,1.29.55,1.83,1.86,1.83h6.06c1.58,0,2-.43,2-2V79.82a9.06,9.06,0,0,1,1.43-5,4.82,4.82,0,0,1,4.76-2.19,4.25,4.25,0,0,1,4.07,3.29,19.82,19.82,0,0,1,.58,4.66c.07,4.6,0,9.2,0,13.81,0,1.27.51,1.78,1.8,1.79h6.6c1.29,0,1.84-.55,1.84-1.85,0-5.12.05-10.25,0-15.36a39.43,39.43,0,0,0-.72-6.5A10,10,0,0,0,91.3,66,11.31,11.31,0,0,0,84.6,64C80.82,64,77.4,64.82,75.1,68.23ZM60.42,80.34V66.6c0-1.67-.46-2.13-2.14-2.13H52.35c-1.32,0-1.9.57-1.9,1.89V94.22c0,1.32.62,1.93,2,1.93h5.91c1.57,0,2.1-.51,2.1-2.07Zm1.44-25a6.38,6.38,0,1,0,0,.07Z"/></g></g></g></g></svg>