<svg xmlns="http://www.w3.org/2000/svg" viewBox="0 0 145 145"><defs><style>.cls-1{fill:red;}.cls-2{fill:#fff;}</style></defs><g id="Layer_2" data-name="Layer 2"><g id="Layer_1-2" data-name="Layer 1"><circle class="cls-1" cx="72.5" cy="72.5" r="72.5"/><g id="Layer_2-2" data-name="Layer 2"><g id="Layer_1-2-2" data-name="Layer 1-2"><path class="cls-2" d="M56.3,82.48a109.27,109.27,0,0,0-19,3.82,37.93,37.93,0,0,1,0-27.73,109.17,109.17,0,0,0,19,3.81Z"/><path class="cls-2" d="M107.67,58.57a38.13,38.13,0,0,1,0,27.73,109.27,109.27,0,0,0-19-3.82V62.43A110.3,110.3,0,0,0,107.67,58.57Z"/><path class="cls-2" d="M61.5,82a132.63,132.63,0,0,1,0-19.12,145.54,145.54,0,0,0,21.9,0c.56,2.27.58,15.37,0,19.11A142.34,142.34,0,0,0,61.5,82Z"/><path class="cls-2" d="M83.22,57.59a147.9,147.9,0,0,1-21.26,0c.22-1.52.4-3,.64-4.45a64.71,64.71,0,0,1,3.92-14.87A29,29,0,0,1,68,35.37a1.15,1.15,0,0,1,.83-.52c2.43,0,4.84,0,7.3,0a1,1,0,0,1,1,.69,38.93,38.93,0,0,1,3.71,10.14C81.73,49.54,82.42,53.48,83.22,57.59Z"/><path class="cls-2" d="M62,87.26a148.45,148.45,0,0,1,21.09,0c-.34,2.17-.61,4.25-1,6.32a59.49,59.49,0,0,1-3.94,13.78l-.23.49c-1.08,2.27-1.08,2.3-3.61,2.32-1.79,0-3.57-.1-5.35-.12a1.13,1.13,0,0,1-1.1-.69,44,44,0,0,1-3.58-9.55A90.77,90.77,0,0,1,62,87.26Z"/><path class="cls-2" d="M83.34,108.66c1-3.46,2.08-6.92,2.85-10.38s1.3-7,1.94-10.48c2.55-.07,14.9,2.33,17.18,3.39A38,38,0,0,1,83.34,108.66Z"/><path class="cls-2" d="M105.31,53.72a95.6,95.6,0,0,1-17.18,3.36C87.49,53.56,87,50,86.18,46.57s-1.87-6.85-2.82-10.28A36.76,36.76,0,0,1,95.9,42.78,37.56,37.56,0,0,1,105.31,53.72Z"/><path class="cls-2" d="M61.94,36.13A81.7,81.7,0,0,0,57,57.06c-2.62.09-14.87-2.3-17.29-3.38A38.23,38.23,0,0,1,61.94,36.13Z"/><path class="cls-2" d="M39.64,91.12A102.65,102.65,0,0,1,57,87.73a83.43,83.43,0,0,0,4.94,21A38.28,38.28,0,0,1,39.64,91.12Z"/></g></g></g></g></svg>