<svg xmlns="http://www.w3.org/2000/svg" viewBox="0 0 109.3 109"><g id="Layer_2" data-name="Layer 2"><g id="Layer_1-2" data-name="Layer 1"><path d="M31.22,68.94A158,158,0,0,0,3.79,74.47a55,55,0,0,1,0-40.11,158.25,158.25,0,0,0,27.44,5.51Z"/><path d="M105.52,34.36a55.12,55.12,0,0,1,0,40.1,158,158,0,0,0-27.43-5.52v-29A160.11,160.11,0,0,0,105.52,34.36Z"/><path d="M38.74,68.24a193.31,193.31,0,0,1,0-27.65,208,208,0,0,0,31.67,0c.81,3.28.85,22.24.07,27.64A206.33,206.33,0,0,0,38.74,68.24Z"/><path d="M70.16,32.94a213.26,213.26,0,0,1-30.75,0c.31-2.2.58-4.32.92-6.44A93.5,93.5,0,0,1,46,5,40.42,40.42,0,0,1,48.1.8,1.68,1.68,0,0,1,49.3.05c3.52-.06,7,0,10.56,0a1.5,1.5,0,0,1,1.49,1,56.09,56.09,0,0,1,5.36,14.66C68,21.3,69,27,70.16,32.94Z"/><path d="M39.43,75.86a212.66,212.66,0,0,1,30.5,0C69.45,79,69.05,82,68.51,85a86.41,86.41,0,0,1-5.7,19.92l-.34.72c-1.56,3.27-1.56,3.32-5.22,3.35-2.58,0-5.16-.15-7.73-.17a1.62,1.62,0,0,1-1.59-1A63.34,63.34,0,0,1,42.74,94,131.43,131.43,0,0,1,39.43,75.86Z"/><path d="M70.33,106.8c1.4-5,3-10,4.12-15s1.88-10.09,2.8-15.16c3.7-.11,21.56,3.37,24.86,4.9A55,55,0,0,1,70.33,106.8Z"/><path d="M102.11,27.35C97.73,29,81.92,32.08,77.25,32.21,76.33,27.11,75.59,22,74.43,17s-2.7-9.9-4.08-14.87A53.34,53.34,0,0,1,88.5,11.52,54.46,54.46,0,0,1,102.11,27.35Z"/><path d="M39.37,1.9c-4,9.93-5.85,20-7.13,30.28-3.79.12-21.5-3.33-25-4.9A55.29,55.29,0,0,1,39.37,1.9Z"/><path d="M7.13,81.43a148.81,148.81,0,0,1,25.1-4.89c1.29,10.33,3.18,20.45,7.14,30.37A55.29,55.29,0,0,1,7.13,81.43Z"/></g></g></svg>